<svg xmlns="http://www.w3.org/2000/svg" viewBox="0 0 211 199" width="211" height="199" preserveAspectRatio="xMidYMid meet" style="width: 100%; height: 100%; transform: translate3d(0px, 0px, 0px);"><defs><clipPath id="__lottie_element_2"><rect width="211" height="199" x="0" y="0"></rect></clipPath><linearGradient id="__lottie_element_6" spreadMethod="pad" gradientUnits="userSpaceOnUse" x1="-46.178001403808594" y1="105.90599822998047" x2="159.54299926757812" y2="-90.86699676513672"><stop offset="0%" stop-color="rgb(123,67,151)"></stop><stop offset="89%" stop-color="rgb(189,33,75)"></stop><stop offset="100%" stop-color="rgb(255,0,0)"></stop><stop offset="100%" stop-color="rgb(255,0,0)"></stop><stop offset="100%" stop-color="rgb(255,0,0)"></stop><stop offset="100%" stop-color="rgb(255,0,0)"></stop><stop offset="100%" stop-color="rgb(255,0,0)"></stop></linearGradient><mask id="__lottie_element_8"><path fill="url(#__lottie_element_7)" d=" M-2.753000020980835,27.547000885009766 C-7.541999816894531,39.61600112915039 -13.291999816894531,51.28499984741211 -19.94700050354004,62.44300079345703 C-14.4399995803833,51.02899932861328 -8.708999633789062,39.183998107910156 -2.753000020980835,27.547000885009766z M16.413000106811523,-47.28499984741211 C15.093999862670898,-55.62699890136719 11.345000267028809,-65.72100067138672 2.753999948501587,-70.5530014038086 C16.413000106811523,-72.94100189208984 32.50199890136719,-74.93900299072266 45.49800109863281,-76.9209976196289 C42.637001037597656,-71.8740005493164 38.233001708984375,-64.18499755859375 34.48400115966797,-57.387001037597656 C29.19300079345703,-48.393001556396484 23.46299934387207,-38.284000396728516 17.516000747680664,-27.547000885009766 C17.957000732421875,-34.14699935913086 17.586000442504883,-40.775001525878906 16.413000106811523,-47.28499984741211z M118.67400360107422,-90.85700225830078 C88.08100128173828,-90.8280029296875 41.0620002746582,-84.2249984741211 -5.400000095367432,-75.7750015258789 C-9.588000297546387,-75.12200164794922 -9.588000297546387,-68.75399780273438 -8.710000038146973,-67.87799835205078 C-8.269000053405762,-66.77999877929688 -6.502999782562256,-66.77999877929688 -5.400000095367432,-66.55699920654297 C4.071000099182129,-64.58300018310547 8.92199993133545,-55.14899826049805 10.46500015258789,-46.14699935913086 C12.008000373840332,-37.38999938964844 11.78499984741211,-26.61400032043457 9.803000450134277,-14.307000160217285 C9.803000450134277,-14.307000160217285 9.579000473022461,-13.423999786376953 9.579000473022461,-13.423999786376953 C8.036999702453613,-10.788999557495117 6.49399995803833,-7.940000057220459 4.952000141143799,-5.090000152587891 C-0.1679999977350235,-5.192999839782715 -5.2769999504089355,-4.6020002365112305 -10.236000061035156,-3.3310000896453857 C-13.984000205993652,-2.2330000400543213 -16.4060001373291,-0.25699999928474426 -16.84600067138672,2.377000093460083 C-17.06999969482422,3.9130001068115234 -16.844999313354492,7.861000061035156 -14.199000358581543,8.960000038146973 C-12.656999588012695,9.621000289916992 -8.029999732971191,9.175000190734863 -9.357000350952148,6.986000061035156 C-10.236000061035156,5.664999961853027 -10.89900016784668,3.00600004196167 -8.253000259399414,2.377000093460083 C-5.000999927520752,1.6030000448226929 -1.6759999990463257,1.159999966621399 1.6670000553131104,1.055999994277954 C-14.86299991607666,31.56599998474121 -31.392000198364258,64.48100280761719 -42.191001892089844,93.23200225830078 C-42.347999572753906,93.68399810791016 -42.42599868774414,94.15399932861328 -42.428001403808594,94.6240005493164 C-42.428001403808594,94.6240005493164 -42.428001403808594,94.65399932861328 -42.428001403808594,94.65399932861328 C-42.42599868774414,95.29299926757812 -42.284000396728516,95.92900085449219 -42.000999450683594,96.51599884033203 C-41.50600051879883,97.54299926757812 -40.62200164794922,98.33399963378906 -39.54399871826172,98.71700286865234 C-39.025001525878906,98.9229965209961 -38.470001220703125,99.02400207519531 -37.9109992980957,99.01599884033203 C-37.35200119018555,99.00700378417969 -36.80099868774414,98.88700103759766 -36.28799819946289,98.66500091552734 C-35.775001525878906,98.44300079345703 -35.31100082397461,98.12300109863281 -34.92399978637695,97.72100067138672 C-34.5359992980957,97.31999969482422 -34.231998443603516,96.8479995727539 -34.02899932861328,96.3290023803711 C-34.02899932861328,96.3290023803711 -33.5890007019043,94.79199981689453 -33.5890007019043,94.79199981689453 C-9.795000076293945,61.869998931884766 5.414999961853027,28.724000930786133 12.680000305175781,1.0789999961853027 C31.415000915527344,1.3009999990463257 54.77000045776367,5.910999774932861 72.4020004272461,2.8389999866485596 C74.16799926757812,2.615999937057495 77.90899658203125,-0.6710000038146973 77.02999877929688,-3.9670000076293945 C76.80599975585938,-5.7179999351501465 73.28099822998047,-5.065000057220459 71.73799896240234,-4.619999885559082 C54.99300003051758,-1.7699999809265137 32.51900100708008,-4.620999813079834 14.88700008392334,-5.065999984741211 C24.582000732421875,-22.618000030517578 33.83700180053711,-39.07899856567383 41.98899841308594,-52.90599822998047 C47.05699920654297,-61.900001525878906 52.13100051879883,-71.11799621582031 56.3120002746582,-78.37799835205078 C56.3120002746582,-78.37799835205078 56.297000885009766,-78.4489974975586 56.297000885009766,-78.4489974975586 C79.51300048828125,-81.61499786376953 102.9530029296875,-82.8499984741211 126.3759994506836,-82.14299774169922 C134.3040008544922,-81.70500183105469 140.6999969482422,-80.82099914550781 144.447998046875,-79.06999969482422 C146.8459930419922,-77.97200012207031 148.18899536132812,-76.87300109863281 147.74899291992188,-75.55899810791016 C147.5330047607422,-74.02200317382812 146.20700073242188,-71.82499694824219 144.00100708007812,-69.41300201416016 C142.45799255371094,-67.65499877929688 140.4759979248047,-65.02100372314453 142.24200439453125,-63.48400115966797 C144.00799560546875,-61.948001861572266 148.8520050048828,-61.948001861572266 150.39500427246094,-63.70800018310547 C153.6959991455078,-67.44100189208984 155.68499755859375,-70.72699737548828 156.33999633789062,-73.80000305175781 C157.4429931640625,-79.94400024414062 154.58299255371094,-84.14700317382812 147.97300720214844,-86.96499633789062 C143.12100219726562,-89.16200256347656 135.84800720214844,-90.26200103759766 126.59200286865234,-90.6989974975586 C124.21099853515625,-90.80400085449219 121.69400024414062,-90.8550033569336 119.0530014038086,-90.85700225830078 C119.0530014038086,-90.85700225830078 118.67400360107422,-90.85700225830078 118.67400360107422,-90.85700225830078z"></path></mask><linearGradient id="__lottie_element_7" spreadMethod="pad" gradientUnits="userSpaceOnUse" x1="-46.178001403808594" y1="105.90599822998047" x2="159.54299926757812" y2="-90.86699676513672"><stop stop-color="rgb(255,255,255)" offset="0%" stop-opacity="1"></stop><stop stop-color="rgb(255,255,255)" offset="50%" stop-opacity="1"></stop><stop stop-color="rgb(255,255,255)" offset="100%" stop-opacity="1"></stop><stop stop-color="rgb(255,255,255)" offset="100%" stop-opacity="1"></stop><stop stop-color="rgb(255,255,255)" offset="100%" stop-opacity="1"></stop></linearGradient><linearGradient id="__lottie_element_9" spreadMethod="pad" gradientUnits="userSpaceOnUse" x1="-136.89999389648438" y1="67.76200103759766" x2="66.75900268554688" y2="-124.88800048828125"><stop offset="0%" stop-color="rgb(123,67,151)"></stop><stop offset="80%" stop-color="rgb(189,33,75)"></stop><stop offset="100%" stop-color="rgb(255,0,0)"></stop><stop offset="100%" stop-color="rgb(255,0,0)"></stop><stop offset="100%" stop-color="rgb(255,0,0)"></stop><stop offset="100%" stop-color="rgb(255,0,0)"></stop><stop offset="100%" stop-color="rgb(255,0,0)"></stop></linearGradient><mask id="__lottie_element_11"><path fill="url(#__lottie_element_10)" d=" M9.467000007629395,-9.875 C10.130000114440918,-10.097999572753906 12.11299991607666,-10.53499984741211 11.673999786376953,-9.437000274658203 C11.673999786376953,-9.437000274658203 11.689000129699707,-9.437000274658203 11.689000129699707,-9.437000274658203 C10.8100004196167,-7.048999786376953 -7.701000213623047,6.578000068664551 -12.11299991607666,10.53499984741211 C-7.038000106811523,3.9519999027252197 2.433000087738037,-7.239999771118164 9.467000007629395,-9.875z M19.649999618530273,-82.8759994506836 C19.649999618530273,-82.8759994506836 19.62700080871582,-82.95500183105469 19.62700080871582,-82.95500183105469 C-6.381999969482422,-37.750999450683594 -37.00899887084961,16.895000457763672 -54.8650016784668,64.95700073242188 C-55.665000915527344,66.84500122070312 -54.25199890136719,67.96800231933594 -52.17599868774414,67.98300170898438 C-52.17599868774414,67.98300170898438 -52.09600067138672,67.98300170898438 -52.09600067138672,67.98300170898438 C-49.590999603271484,67.96800231933594 -46.16400146484375,66.35900115966797 -44.474998474121094,62.569000244140625 C-39.40800094604492,50.715999603271484 -29.496999740600586,35.138999938964844 -23.101999282836914,25.697999954223633 C-23.104999542236328,27.052000045776367 -22.881000518798828,28.39699935913086 -22.43899917602539,29.67799949645996 C-13.847000122070312,48.78200149536133 41.685001373291016,2.0329999923706055 45.650001525878906,-1.4850000143051147 C48.29499816894531,-3.6740000247955322 42.34199905395508,-6.309000015258789 39.25699996948242,-3.872999906539917 C28.865999221801758,4.684000015258789 2.680999994277954,23.98699951171875 -10.986000061035156,26.191999435424805 C-14.982999801635742,26.6299991607666 -16.054000854492188,23.55699920654297 -14.071999549865723,21.58300018310547 C-8.557000160217285,15.87600040435791 11.050000190734863,3.5929999351501465 17.65999984741211,-5.624000072479248 C22.288000106811523,-11.991999626159668 18.323999404907227,-17.038999557495117 10.835000038146973,-16.163000106811523 C-1.2899999618530273,-14.626999855041504 -16.715999603271484,6.21999979019165 -23.326000213623047,15.437999725341797 C-7.236999988555908,-16.823999404907227 15.677000045776367,-56.10599899291992 30.886999130249023,-82.8759994506836 C32.301998138427734,-85.37100219726562 30.268999099731445,-86.58000183105469 27.506999969482422,-86.58000183105469 C24.683000564575195,-86.58100128173828 21.09600067138672,-85.31800079345703 19.649999618530273,-82.8759994506836z"></path></mask><linearGradient id="__lottie_element_10" spreadMethod="pad" gradientUnits="userSpaceOnUse" x1="-136.89999389648438" y1="67.76200103759766" x2="66.75900268554688" y2="-124.88800048828125"><stop stop-color="rgb(255,255,255)" offset="0%" stop-opacity="1"></stop><stop stop-color="rgb(255,255,255)" offset="50%" stop-opacity="1"></stop><stop stop-color="rgb(255,255,255)" offset="100%" stop-opacity="1"></stop><stop stop-color="rgb(255,255,255)" offset="100%" stop-opacity="1"></stop><stop stop-color="rgb(255,255,255)" offset="100%" stop-opacity="1"></stop></linearGradient></defs><g clip-path="url(#__lottie_element_2)"><g transform="matrix(0.9700000286102295,0,0,0.9700000286102295,8.985000610351562,6.864997863769531)" opacity="1" style="display: block;"><g opacity="1" transform="matrix(1,0,0,1,42.428001403808594,90.85700225830078)"><path fill="url(#__lottie_element_6)" mask="url(#__lottie_element_8)" fill-opacity="1" d="M0 0 M-2.753000020980835,27.547000885009766 C-7.541999816894531,39.61600112915039 -13.291999816894531,51.28499984741211 -19.94700050354004,62.44300079345703 C-14.4399995803833,51.02899932861328 -8.708999633789062,39.183998107910156 -2.753000020980835,27.547000885009766z M16.413000106811523,-47.28499984741211 C15.093999862670898,-55.62699890136719 11.345000267028809,-65.72100067138672 2.753999948501587,-70.5530014038086 C16.413000106811523,-72.94100189208984 32.50199890136719,-74.93900299072266 45.49800109863281,-76.9209976196289 C42.637001037597656,-71.8740005493164 38.233001708984375,-64.18499755859375 34.48400115966797,-57.387001037597656 C29.19300079345703,-48.393001556396484 23.46299934387207,-38.284000396728516 17.516000747680664,-27.547000885009766 C17.957000732421875,-34.14699935913086 17.586000442504883,-40.775001525878906 16.413000106811523,-47.28499984741211z M118.67400360107422,-90.85700225830078 C88.08100128173828,-90.8280029296875 41.0620002746582,-84.2249984741211 -5.400000095367432,-75.7750015258789 C-9.588000297546387,-75.12200164794922 -9.588000297546387,-68.75399780273438 -8.710000038146973,-67.87799835205078 C-8.269000053405762,-66.77999877929688 -6.502999782562256,-66.77999877929688 -5.400000095367432,-66.55699920654297 C4.071000099182129,-64.58300018310547 8.92199993133545,-55.14899826049805 10.46500015258789,-46.14699935913086 C12.008000373840332,-37.38999938964844 11.78499984741211,-26.61400032043457 9.803000450134277,-14.307000160217285 C9.803000450134277,-14.307000160217285 9.579000473022461,-13.423999786376953 9.579000473022461,-13.423999786376953 C8.036999702453613,-10.788999557495117 6.49399995803833,-7.940000057220459 4.952000141143799,-5.090000152587891 C-0.1679999977350235,-5.192999839782715 -5.2769999504089355,-4.6020002365112305 -10.236000061035156,-3.3310000896453857 C-13.984000205993652,-2.2330000400543213 -16.4060001373291,-0.25699999928474426 -16.84600067138672,2.377000093460083 C-17.06999969482422,3.9130001068115234 -16.844999313354492,7.861000061035156 -14.199000358581543,8.960000038146973 C-12.656999588012695,9.621000289916992 -8.029999732971191,9.175000190734863 -9.357000350952148,6.986000061035156 C-10.236000061035156,5.664999961853027 -10.89900016784668,3.00600004196167 -8.253000259399414,2.377000093460083 C-5.000999927520752,1.6030000448226929 -1.6759999990463257,1.159999966621399 1.6670000553131104,1.055999994277954 C-14.86299991607666,31.56599998474121 -31.392000198364258,64.48100280761719 -42.191001892089844,93.23200225830078 C-42.347999572753906,93.68399810791016 -42.42599868774414,94.15399932861328 -42.428001403808594,94.6240005493164 C-42.428001403808594,94.6240005493164 -42.428001403808594,94.65399932861328 -42.428001403808594,94.65399932861328 C-42.42599868774414,95.29299926757812 -42.284000396728516,95.92900085449219 -42.000999450683594,96.51599884033203 C-41.50600051879883,97.54299926757812 -40.62200164794922,98.33399963378906 -39.54399871826172,98.71700286865234 C-39.025001525878906,98.9229965209961 -38.470001220703125,99.02400207519531 -37.9109992980957,99.01599884033203 C-37.35200119018555,99.00700378417969 -36.80099868774414,98.88700103759766 -36.28799819946289,98.66500091552734 C-35.775001525878906,98.44300079345703 -35.31100082397461,98.12300109863281 -34.92399978637695,97.72100067138672 C-34.5359992980957,97.31999969482422 -34.231998443603516,96.8479995727539 -34.02899932861328,96.3290023803711 C-34.02899932861328,96.3290023803711 -33.5890007019043,94.79199981689453 -33.5890007019043,94.79199981689453 C-9.795000076293945,61.869998931884766 5.414999961853027,28.724000930786133 12.680000305175781,1.0789999961853027 C31.415000915527344,1.3009999990463257 54.77000045776367,5.910999774932861 72.4020004272461,2.8389999866485596 C74.16799926757812,2.615999937057495 77.90899658203125,-0.6710000038146973 77.02999877929688,-3.9670000076293945 C76.80599975585938,-5.7179999351501465 73.28099822998047,-5.065000057220459 71.73799896240234,-4.619999885559082 C54.99300003051758,-1.7699999809265137 32.51900100708008,-4.620999813079834 14.88700008392334,-5.065999984741211 C24.582000732421875,-22.618000030517578 33.83700180053711,-39.07899856567383 41.98899841308594,-52.90599822998047 C47.05699920654297,-61.900001525878906 52.13100051879883,-71.11799621582031 56.3120002746582,-78.37799835205078 C56.3120002746582,-78.37799835205078 56.297000885009766,-78.4489974975586 56.297000885009766,-78.4489974975586 C79.51300048828125,-81.61499786376953 102.9530029296875,-82.8499984741211 126.3759994506836,-82.14299774169922 C134.3040008544922,-81.70500183105469 140.6999969482422,-80.82099914550781 144.447998046875,-79.06999969482422 C146.8459930419922,-77.97200012207031 148.18899536132812,-76.87300109863281 147.74899291992188,-75.55899810791016 C147.5330047607422,-74.02200317382812 146.20700073242188,-71.82499694824219 144.00100708007812,-69.41300201416016 C142.45799255371094,-67.65499877929688 140.4759979248047,-65.02100372314453 142.24200439453125,-63.48400115966797 C144.00799560546875,-61.948001861572266 148.8520050048828,-61.948001861572266 150.39500427246094,-63.70800018310547 C153.6959991455078,-67.44100189208984 155.68499755859375,-70.72699737548828 156.33999633789062,-73.80000305175781 C157.4429931640625,-79.94400024414062 154.58299255371094,-84.14700317382812 147.97300720214844,-86.96499633789062 C143.12100219726562,-89.16200256347656 135.84800720214844,-90.26200103759766 126.59200286865234,-90.6989974975586 C124.21099853515625,-90.80400085449219 121.69400024414062,-90.8550033569336 119.0530014038086,-90.85700225830078 C119.0530014038086,-90.85700225830078 118.67400360107422,-90.85700225830078 118.67400360107422,-90.85700225830078z"></path><g opacity="1" transform="matrix(1,0,0,1,0,0)"></g></g><g opacity="1" transform="matrix(1,0,0,1,135.95799255371094,123.01699829101562)"><path fill="url(#__lottie_element_9)" mask="url(#__lottie_element_11)" fill-opacity="1" d="M0 0 M9.467000007629395,-9.875 C10.130000114440918,-10.097999572753906 12.11299991607666,-10.53499984741211 11.673999786376953,-9.437000274658203 C11.673999786376953,-9.437000274658203 11.689000129699707,-9.437000274658203 11.689000129699707,-9.437000274658203 C10.8100004196167,-7.048999786376953 -7.701000213623047,6.578000068664551 -12.11299991607666,10.53499984741211 C-7.038000106811523,3.9519999027252197 2.433000087738037,-7.239999771118164 9.467000007629395,-9.875z M19.649999618530273,-82.8759994506836 C19.649999618530273,-82.8759994506836 19.62700080871582,-82.95500183105469 19.62700080871582,-82.95500183105469 C-6.381999969482422,-37.750999450683594 -37.00899887084961,16.895000457763672 -54.8650016784668,64.95700073242188 C-55.665000915527344,66.84500122070312 -54.25199890136719,67.96800231933594 -52.17599868774414,67.98300170898438 C-52.17599868774414,67.98300170898438 -52.09600067138672,67.98300170898438 -52.09600067138672,67.98300170898438 C-49.590999603271484,67.96800231933594 -46.16400146484375,66.35900115966797 -44.474998474121094,62.569000244140625 C-39.40800094604492,50.715999603271484 -29.496999740600586,35.138999938964844 -23.101999282836914,25.697999954223633 C-23.104999542236328,27.052000045776367 -22.881000518798828,28.39699935913086 -22.43899917602539,29.67799949645996 C-13.847000122070312,48.78200149536133 41.685001373291016,2.0329999923706055 45.650001525878906,-1.4850000143051147 C48.29499816894531,-3.6740000247955322 42.34199905395508,-6.309000015258789 39.25699996948242,-3.872999906539917 C28.865999221801758,4.684000015258789 2.680999994277954,23.98699951171875 -10.986000061035156,26.191999435424805 C-14.982999801635742,26.6299991607666 -16.054000854492188,23.55699920654297 -14.071999549865723,21.58300018310547 C-8.557000160217285,15.87600040435791 11.050000190734863,3.5929999351501465 17.65999984741211,-5.624000072479248 C22.288000106811523,-11.991999626159668 18.323999404907227,-17.038999557495117 10.835000038146973,-16.163000106811523 C-1.2899999618530273,-14.626999855041504 -16.715999603271484,6.21999979019165 -23.326000213623047,15.437999725341797 C-7.236999988555908,-16.823999404907227 15.677000045776367,-56.10599899291992 30.886999130249023,-82.8759994506836 C32.301998138427734,-85.37100219726562 30.268999099731445,-86.58000183105469 27.506999969482422,-86.58000183105469 C24.683000564575195,-86.58100128173828 21.09600067138672,-85.31800079345703 19.649999618530273,-82.8759994506836z"></path><g opacity="1" transform="matrix(1,0,0,1,0,0)"></g></g></g></g></svg>