<?xml version="1.0" encoding="utf-8"?>
<!-- Generator: Adobe Illustrator 25.3.1, SVG Export Plug-In . SVG Version: 6.00 Build 0)  -->
<svg version="1.1" id="Calque_1" xmlns="http://www.w3.org/2000/svg" xmlns:xlink="http://www.w3.org/1999/xlink" x="0px" y="0px"
	 viewBox="0 0 199 191" style="enable-background:new 0 0 199 191;" xml:space="preserve">
<style type="text/css">
	.st0{fill:#FFFFFF;}
	.st1{fill:url(#SVGID_1_);}
</style>
<path class="st0" d="M98.7,12.4c23.2-3.2,46.7-4.4,70.1-3.7c7.9,0.4,14.3,1.3,18.1,3.1c2.4,1.1,3.7,2.2,3.3,3.5
	c-0.2,1.5-1.5,3.7-3.7,6.1c-1.5,1.8-3.5,4.4-1.8,5.9c1.8,1.5,6.6,1.5,8.2-0.2c3.3-3.7,5.3-7,5.9-10.1c1.1-6.1-1.8-10.3-8.4-13.2
	c-4.9-2.2-12.1-3.3-21.4-3.7c-30-1.3-81.3,5.7-132,14.9c-4.2,0.7-4.2,7-3.3,7.9c0.4,1.1,2.2,1.1,3.3,1.3c9.5,2,14.3,11.4,15.9,20.4
	c1.5,8.8,1.3,19.5-0.7,31.8L52,77.4c-1.5,2.6-3.1,5.5-4.6,8.3c-5.1-0.1-10.2,0.5-15.2,1.8c-3.7,1.1-6.2,3.1-6.6,5.7
	c-0.2,1.5,0,5.5,2.6,6.6c1.5,0.7,6.2,0.2,4.8-2c-0.9-1.3-1.5-4,1.1-4.6c3.3-0.8,6.6-1.2,9.9-1.3C27.6,122.4,11,155.3,0.2,184.1
	c-0.4,1.1-0.3,2.3,0.2,3.3c0.5,1,1.4,1.8,2.5,2.2c0.5,0.2,1.1,0.3,1.6,0.3c0.6,0,1.1-0.1,1.6-0.4c0.5-0.2,1-0.5,1.4-0.9
	c0.4-0.4,0.7-0.9,0.9-1.4l0.4-1.5c23.8-32.9,39-66.1,46.3-93.7c18.7,0.2,42.1,4.8,59.7,1.8c1.8-0.2,5.5-3.5,4.6-6.8
	c-0.2-1.8-3.7-1.1-5.3-0.7c-16.7,2.8-39.2,0-56.9-0.4c9.7-17.6,19-34,27.1-47.8C89.5,29,94.6,19.7,98.7,12.4L98.7,12.4z M39.7,118.4
	c-4.8,12.1-10.5,23.7-17.2,34.9C28,141.9,33.7,130,39.7,118.4z M59.9,63.3c0.4-6.6,0.1-13.2-1.1-19.7c-1.3-8.3-5.1-18.4-13.7-23.3
	c13.7-2.4,29.7-4.4,42.7-6.4c-2.9,5-7.3,12.7-11,19.5C71.6,42.5,65.9,52.6,59.9,63.3L59.9,63.3z"/>
<linearGradient id="SVGID_1_" gradientUnits="userSpaceOnUse" x1="80.8659" y1="78.2816" x2="213.704" y2="78.2816" gradientTransform="matrix(1 0 0 -1 0 192)">
	<stop  offset="0" style="stop-color:#7B4397;stop-opacity:0"/>
	<stop  offset="50%" style="stop-color:#FFFFFF"/>
</linearGradient>
<path class="st1" d="M155.6,40.1c-26,45.2-56.6,99.9-74.5,147.9c-1.8,4.2,7.3,4.6,10.4-2.4c5.1-11.9,15-27.4,21.4-36.9
	c0,1.4,0.2,2.7,0.7,4c8.6,19.1,64.1-27.6,68.1-31.2c2.6-2.2-3.3-4.8-6.4-2.4c-10.4,8.6-36.6,27.9-50.2,30.1c-4,0.4-5.1-2.6-3.1-4.6
	c5.5-5.7,25.1-18,31.7-27.2c4.6-6.4,0.7-11.4-6.8-10.5c-12.1,1.5-27.6,22.4-34.2,31.6c16.1-32.3,39-71.5,54.2-98.3
	C169.7,35.1,158.5,35.3,155.6,40.1L155.6,40.1z M147.6,113.6c-0.9,2.4-19.4,16-23.8,20c5.1-6.6,14.5-17.8,21.6-20.4
	C146.1,112.9,148.1,112.5,147.6,113.6L147.6,113.6z"/>
</svg>
